<svg width="57" height="26" fill="none" xmlns="http://www.w3.org/2000/svg"><path d="M48.78 25.28H8.22a.92.92 0 01-.87-.62L1.28 6.98A.92.92 0 012.3 5.77c.33.02.65.22.79.54.75 1.7 3.42 7.2 6.53 7.2h.11c1.88-.08 4.81-2.25 8.14-12.09a.92.92 0 011.75 0c1.13 3.36 4.94 12.04 8.89 12.04h.03c1.87-.03 4.75-2.13 7.84-12.02a.92.92 0 01.88-.64h0c.41 0 .77.27.88.66.94 3.25 4.29 11.75 8.39 12.1 2.4.2 5.05-2.5 7.67-7.86a.92.92 0 011.7.7l-6.25 18.26a.92.92 0 01-.87.62zm-39.9-1.84h39.24l3.61-10.55c-1.74 1.84-3.51 2.67-5.36 2.51-4.54-.4-7.66-6.94-9.11-10.78-2.56 7.14-5.42 10.64-8.7 10.68h-.05c-4.6 0-8.14-7.04-9.74-10.92-2.74 7.23-5.68 10.82-8.96 10.97-1.67.07-3.14-.77-4.4-2.01l3.47 10.1z" fill="#A07B50" stroke="#1F1C1D" stroke-width=".8"/></svg>