<svg width="16" height="11" fill="none" xmlns="http://www.w3.org/2000/svg"><path d="M13.38 4.62c.84-.07 1.42-.45 1.64-.98-.3.19-1.26.4-1.78.2a6.46 6.46 0 00-.08-.35c-.4-1.46-1.77-2.64-3.2-2.5l.35-.13c.16-.06 1.08-.2.94-.53-.13-.29-1.26.21-1.47.28.28-.1.75-.29.8-.61-.43.06-.86.26-1.18.56.12-.13.2-.28.22-.45-1.14.73-1.81 2.21-2.36 3.65-.42-.42-.8-.74-1.14-.92a29.78 29.78 0 00-3.87-1.7c-.05.58.3 1.37 1.3 1.9-.23-.04-.62.03-.94.1.13.68.55 1.24 1.7 1.5-.53.04-.8.16-1.04.41.24.47.81 1.03 1.86.91-1.16.5-.48 1.43.46 1.29A4 4 0 010 7.4c3.8 5.17 12.05 3.06 13.29-1.93.92.01 1.46-.32 1.8-.68-.54.1-1.3 0-1.71-.17z" fill="#fff"/></svg>