<svg width="71" height="108" fill="none" xmlns="http://www.w3.org/2000/svg"><mask id="a" fill="#fff"><path d="M70.44 33.07l-6.57-14.91V1.59A1.59 1.59 0 0061.6.17l-6 3.02-6-3.02a1.56 1.56 0 00-1.4 0l-6 3.02-6-3.02a1.56 1.56 0 00-1.4 0l-6 3.02-6-3.02a1.56 1.56 0 00-1.4 0l-6 3.02-6-3.02a1.59 1.59 0 00-2.27 1.42v16.57L.56 33.06c-.09.2-.13.43-.13.65v72.7c0 .88.7 1.59 1.57 1.59h67c.87 0 1.57-.71 1.57-1.58v-72.7c0-.23-.04-.45-.13-.65zM10.27 4.15l4.43 2.23c.44.23.96.23 1.4 0l6-3.02 6 3.02c.44.23.96.23 1.4 0l6-3.02 6 3.02c.44.23.96.23 1.4 0l6-3.02 6 3.02c.44.23.96.23 1.4 0l4.43-2.23v12.76H10.27V4.15zm-6.7 76.8H38.3l6.41 5.18-6.41 5.17H3.57V80.95zm40.3-45.65h10.16v69.53H3.57V94.47h35.28c.36 0 .7-.12.98-.34l8.38-6.77c.77-.62.77-1.85 0-2.47l-8.38-6.77a1.56 1.56 0 00-.98-.34H3.57V35.3h32.98c.86 0 1.57-.71 1.57-1.59 0-.88-.7-1.58-1.57-1.58H4.4l5.3-12.05H59.9l-5.3 12.05H43.87c-.87 0-1.57.7-1.57 1.58 0 .88.7 1.59 1.57 1.59zm23.56 69.53H57.17V34.05L62.3 22.4l5.13 11.65v70.78z"/><path d="M28.8 50.72c-7.1 0-12.88 5.84-12.88 13 0 6.55 4.82 10.46 12.88 10.46s12.88-3.9 12.88-10.46c0-7.16-5.78-13-12.88-13zm0 20.3c-3.64 0-9.74-.95-9.74-7.3a9.8 9.8 0 019.74-9.83 9.8 9.8 0 019.74 9.83c0 6.35-6.1 7.3-9.74 7.3zM22.52 38.04c-3.21 0-5.34 4.01-5.34 6.66 0 2.97 2.4 5.39 5.34 5.39a5.37 5.37 0 005.34-5.39c0-2.65-2.13-6.66-5.34-6.66zm0 8.88c-1.21 0-2.2-1-2.2-2.22 0-1.5 1.25-3.49 2.2-3.49.94 0 2.2 2 2.2 3.5 0 1.21-.99 2.21-2.2 2.21zM35.08 38.04c-3.2 0-5.34 4.01-5.34 6.66 0 2.97 2.4 5.39 5.34 5.39a5.37 5.37 0 005.34-5.39c0-2.65-2.13-6.66-5.34-6.66zm0 8.88c-1.21 0-2.2-1-2.2-2.22 0-1.5 1.26-3.49 2.2-3.49.95 0 2.2 2 2.2 3.5 0 1.21-.99 2.21-2.2 2.21zM45.13 45.65c-3.2 0-5.34 4-5.34 6.66 0 2.97 2.4 5.39 5.34 5.39a5.37 5.37 0 005.34-5.4c0-2.64-2.13-6.65-5.34-6.65zm0 8.88c-1.21 0-2.2-1-2.2-2.22 0-1.5 1.26-3.49 2.2-3.49.95 0 2.2 1.99 2.2 3.49 0 1.22-.99 2.22-2.2 2.22zM12.47 45.65c-3.21 0-5.34 4-5.34 6.66 0 2.97 2.4 5.39 5.34 5.39a5.37 5.37 0 005.34-5.4c0-2.64-2.13-6.65-5.34-6.65zm0 8.88c-1.22 0-2.2-1-2.2-2.22 0-1.5 1.25-3.49 2.2-3.49.94 0 2.2 1.99 2.2 3.49 0 1.22-1 2.22-2.2 2.22zM15.4 98.07H8.7c-.87 0-1.57.7-1.57 1.58 0 .88.7 1.59 1.57 1.59h6.7c.87 0 1.57-.71 1.57-1.59 0-.87-.7-1.58-1.57-1.58zM37.18 98.07H22.1c-.87 0-1.57.7-1.57 1.58 0 .88.7 1.59 1.57 1.59h15.08c.86 0 1.57-.71 1.57-1.59 0-.87-.7-1.58-1.57-1.58zM20.42 84.54H8.7c-.87 0-1.57.71-1.57 1.59 0 .87.7 1.58 1.57 1.58h11.72c.87 0 1.57-.7 1.57-1.58 0-.88-.7-1.59-1.57-1.59zM35.5 84.54h-8.38c-.86 0-1.57.71-1.57 1.59 0 .87.7 1.58 1.57 1.58h8.38c.87 0 1.57-.7 1.57-1.58 0-.88-.7-1.59-1.57-1.59z"/></mask><path d="M70.44 33.07l-6.57-14.91V1.59A1.59 1.59 0 0061.6.17l-6 3.02-6-3.02a1.56 1.56 0 00-1.4 0l-6 3.02-6-3.02a1.56 1.56 0 00-1.4 0l-6 3.02-6-3.02a1.56 1.56 0 00-1.4 0l-6 3.02-6-3.02a1.59 1.59 0 00-2.27 1.42v16.57L.56 33.06c-.09.2-.13.43-.13.65v72.7c0 .88.7 1.59 1.57 1.59h67c.87 0 1.57-.71 1.57-1.58v-72.7c0-.23-.04-.45-.13-.65zM10.27 4.15l4.43 2.23c.44.23.96.23 1.4 0l6-3.02 6 3.02c.44.23.96.23 1.4 0l6-3.02 6 3.02c.44.23.96.23 1.4 0l6-3.02 6 3.02c.44.23.96.23 1.4 0l4.43-2.23v12.76H10.27V4.15zm-6.7 76.8H38.3l6.41 5.18-6.41 5.17H3.57V80.95zm40.3-45.65h10.16v69.53H3.57V94.47h35.28c.36 0 .7-.12.98-.34l8.38-6.77c.77-.62.77-1.85 0-2.47l-8.38-6.77a1.56 1.56 0 00-.98-.34H3.57V35.3h32.98c.86 0 1.57-.71 1.57-1.59 0-.88-.7-1.58-1.57-1.58H4.4l5.3-12.05H59.9l-5.3 12.05H43.87c-.87 0-1.57.7-1.57 1.58 0 .88.7 1.59 1.57 1.59zm23.56 69.53H57.17V34.05L62.3 22.4l5.13 11.65v70.78z" fill="#A07B50"/><path d="M28.8 50.72c-7.1 0-12.88 5.84-12.88 13 0 6.55 4.82 10.46 12.88 10.46s12.88-3.9 12.88-10.46c0-7.16-5.78-13-12.88-13zm0 20.3c-3.64 0-9.74-.95-9.74-7.3a9.8 9.8 0 019.74-9.83 9.8 9.8 0 019.74 9.83c0 6.35-6.1 7.3-9.74 7.3zM22.52 38.04c-3.21 0-5.34 4.01-5.34 6.66 0 2.97 2.4 5.39 5.34 5.39a5.37 5.37 0 005.34-5.39c0-2.65-2.13-6.66-5.34-6.66zm0 8.88c-1.21 0-2.2-1-2.2-2.22 0-1.5 1.25-3.49 2.2-3.49.94 0 2.2 2 2.2 3.5 0 1.21-.99 2.21-2.2 2.21zM35.08 38.04c-3.2 0-5.34 4.01-5.34 6.66 0 2.97 2.4 5.39 5.34 5.39a5.37 5.37 0 005.34-5.39c0-2.65-2.13-6.66-5.34-6.66zm0 8.88c-1.21 0-2.2-1-2.2-2.22 0-1.5 1.26-3.49 2.2-3.49.95 0 2.2 2 2.2 3.5 0 1.21-.99 2.21-2.2 2.21zM45.13 45.65c-3.2 0-5.34 4-5.34 6.66 0 2.97 2.4 5.39 5.34 5.39a5.37 5.37 0 005.34-5.4c0-2.64-2.13-6.65-5.34-6.65zm0 8.88c-1.21 0-2.2-1-2.2-2.22 0-1.5 1.26-3.49 2.2-3.49.95 0 2.2 1.99 2.2 3.49 0 1.22-.99 2.22-2.2 2.22zM12.47 45.65c-3.21 0-5.34 4-5.34 6.66 0 2.97 2.4 5.39 5.34 5.39a5.37 5.37 0 005.34-5.4c0-2.64-2.13-6.65-5.34-6.65zm0 8.88c-1.22 0-2.2-1-2.2-2.22 0-1.5 1.25-3.49 2.2-3.49.94 0 2.2 1.99 2.2 3.49 0 1.22-1 2.22-2.2 2.22zM15.4 98.07H8.7c-.87 0-1.57.7-1.57 1.58 0 .88.7 1.59 1.57 1.59h6.7c.87 0 1.57-.71 1.57-1.59 0-.87-.7-1.58-1.57-1.58zM37.18 98.07H22.1c-.87 0-1.57.7-1.57 1.58 0 .88.7 1.59 1.57 1.59h15.08c.86 0 1.57-.71 1.57-1.59 0-.87-.7-1.58-1.57-1.58zM20.42 84.54H8.7c-.87 0-1.57.71-1.57 1.59 0 .87.7 1.58 1.57 1.58h11.72c.87 0 1.57-.7 1.57-1.58 0-.88-.7-1.59-1.57-1.59zM35.5 84.54h-8.38c-.86 0-1.57.71-1.57 1.59 0 .87.7 1.58 1.57 1.58h8.38c.87 0 1.57-.7 1.57-1.58 0-.88-.7-1.59-1.57-1.59z" fill="#A07B50"/><path d="M70.44 33.07l-6.57-14.91V1.59A1.59 1.59 0 0061.6.17l-6 3.02-6-3.02a1.56 1.56 0 00-1.4 0l-6 3.02-6-3.02a1.56 1.56 0 00-1.4 0l-6 3.02-6-3.02a1.56 1.56 0 00-1.4 0l-6 3.02-6-3.02a1.59 1.59 0 00-2.27 1.42v16.57L.56 33.06c-.09.2-.13.43-.13.65v72.7c0 .88.7 1.59 1.57 1.59h67c.87 0 1.57-.71 1.57-1.58v-72.7c0-.23-.04-.45-.13-.65zM10.27 4.15l4.43 2.23c.44.23.96.23 1.4 0l6-3.02 6 3.02c.44.23.96.23 1.4 0l6-3.02 6 3.02c.44.23.96.23 1.4 0l6-3.02 6 3.02c.44.23.96.23 1.4 0l4.43-2.23v12.76H10.27V4.15zm-6.7 76.8H38.3l6.41 5.18-6.41 5.17H3.57V80.95zm40.3-45.65h10.16v69.53H3.57V94.47h35.28c.36 0 .7-.12.98-.34l8.38-6.77c.77-.62.77-1.85 0-2.47l-8.38-6.77a1.56 1.56 0 00-.98-.34H3.57V35.3h32.98c.86 0 1.57-.71 1.57-1.59 0-.88-.7-1.58-1.57-1.58H4.4l5.3-12.05H59.9l-5.3 12.05H43.87c-.87 0-1.57.7-1.57 1.58 0 .88.7 1.59 1.57 1.59zm23.56 69.53H57.17V34.05L62.3 22.4l5.13 11.65v70.78z" stroke="#1F1C1D" stroke-width="2" mask="url(#a)"/><path d="M28.8 50.72c-7.1 0-12.88 5.84-12.88 13 0 6.55 4.82 10.46 12.88 10.46s12.88-3.9 12.88-10.46c0-7.16-5.78-13-12.88-13zm0 20.3c-3.64 0-9.74-.95-9.74-7.3a9.8 9.8 0 019.74-9.83 9.8 9.8 0 019.74 9.83c0 6.35-6.1 7.3-9.74 7.3zM22.52 38.04c-3.21 0-5.34 4.01-5.34 6.66 0 2.97 2.4 5.39 5.34 5.39a5.37 5.37 0 005.34-5.39c0-2.65-2.13-6.66-5.34-6.66zm0 8.88c-1.21 0-2.2-1-2.2-2.22 0-1.5 1.25-3.49 2.2-3.49.94 0 2.2 2 2.2 3.5 0 1.21-.99 2.21-2.2 2.21zM35.08 38.04c-3.2 0-5.34 4.01-5.34 6.66 0 2.97 2.4 5.39 5.34 5.39a5.37 5.37 0 005.34-5.39c0-2.65-2.13-6.66-5.34-6.66zm0 8.88c-1.21 0-2.2-1-2.2-2.22 0-1.5 1.26-3.49 2.2-3.49.95 0 2.2 2 2.2 3.5 0 1.21-.99 2.21-2.2 2.21zM45.13 45.65c-3.2 0-5.34 4-5.34 6.66 0 2.97 2.4 5.39 5.34 5.39a5.37 5.37 0 005.34-5.4c0-2.64-2.13-6.65-5.34-6.65zm0 8.88c-1.21 0-2.2-1-2.2-2.22 0-1.5 1.26-3.49 2.2-3.49.95 0 2.2 1.99 2.2 3.49 0 1.22-.99 2.22-2.2 2.22zM12.47 45.65c-3.21 0-5.34 4-5.34 6.66 0 2.97 2.4 5.39 5.34 5.39a5.37 5.37 0 005.34-5.4c0-2.64-2.13-6.65-5.34-6.65zm0 8.88c-1.22 0-2.2-1-2.2-2.22 0-1.5 1.25-3.49 2.2-3.49.94 0 2.2 1.99 2.2 3.49 0 1.22-1 2.22-2.2 2.22zM15.4 98.07H8.7c-.87 0-1.57.7-1.57 1.58 0 .88.7 1.59 1.57 1.59h6.7c.87 0 1.57-.71 1.57-1.59 0-.87-.7-1.58-1.57-1.58zM37.18 98.07H22.1c-.87 0-1.57.7-1.57 1.58 0 .88.7 1.59 1.57 1.59h15.08c.86 0 1.57-.71 1.57-1.59 0-.87-.7-1.58-1.57-1.58zM20.42 84.54H8.7c-.87 0-1.57.71-1.57 1.59 0 .87.7 1.58 1.57 1.58h11.72c.87 0 1.57-.7 1.57-1.58 0-.88-.7-1.59-1.57-1.59zM35.5 84.54h-8.38c-.86 0-1.57.71-1.57 1.59 0 .87.7 1.58 1.57 1.58h8.38c.87 0 1.57-.7 1.57-1.58 0-.88-.7-1.59-1.57-1.59z" stroke="#1F1C1D" stroke-width="2" mask="url(#a)"/></svg>