<svg width="99" height="107" fill="none" xmlns="http://www.w3.org/2000/svg"><mask id="a" fill="#fff"><path d="M13.9 23.45C6.57 23.45.6 29.42.6 36.75c0 6.8 5.14 12.42 11.73 13.2V60.2a1.57 1.57 0 003.14 0V49.95c6.6-.78 11.73-6.4 11.73-13.2 0-7.33-5.97-13.3-13.3-13.3zm0 23.45a10.17 10.17 0 010-20.3 10.17 10.17 0 010 20.3z"/><path d="M13.9 30.15a6.6 6.6 0 10.02 13.21 6.6 6.6 0 00-.02-13.2zm0 10.05a3.46 3.46 0 11.01-6.91 3.46 3.46 0 010 6.91zM96.82 37.7h-.94V10.77a8.28 8.28 0 00-8.27-8.27h-3.46v-.94c0-.87-.7-1.57-1.57-1.57H78.4a4.09 4.09 0 000 8.17h4.18c.87 0 1.57-.7 1.57-1.57v-.95h3.46c2.83 0 5.13 2.3 5.13 5.13V37.7h-.94c-.87 0-1.57.7-1.57 1.57v2.51c0 6.99-5.69 12.67-12.67 12.67h-20.1a12.68 12.68 0 01-12.67-12.67v-2.5c0-.88-.7-1.58-1.57-1.58h-.94V10.8c0-2.83 2.3-5.14 5.13-5.14h3.45v.95c0 .86.7 1.57 1.57 1.57h4.19a4.09 4.09 0 000-8.17h-4.19c-.87 0-1.57.7-1.57 1.57v.94h-3.45a8.28 8.28 0 00-8.27 8.27V37.7h-.95c-.86 0-1.57.7-1.57 1.57v2.51a20.86 20.86 0 0020.84 20.84h5.96v7.64c0 .87.7 1.57 1.58 1.57h.94v8.48a23.58 23.58 0 01-23.56 23.56h-3.35A23.58 23.58 0 0115.47 80.3V67.8a1.57 1.57 0 00-3.14 0v12.5a26.73 26.73 0 0026.7 26.7h3.35a26.73 26.73 0 0026.7-26.7v-8.48h.94c.87 0 1.57-.7 1.57-1.57v-7.64h5.97a20.86 20.86 0 0020.83-20.84v-2.5c0-.88-.7-1.58-1.57-1.58zM81.02 5.02H78.4a.94.94 0 010-1.89H81v1.89zM54 3.14h2.62a.94.94 0 010 1.89H54V3.14zm41.25 38.63c0 9.76-7.93 17.7-17.7 17.7h-7.53c-.87 0-1.57.7-1.57 1.57v7.64h-1.88v-7.64c0-.87-.7-1.57-1.57-1.57h-7.54c-9.76 0-17.7-7.94-17.7-17.7v-.94h1.89v.94c0 8.72 7.09 15.81 15.8 15.81h20.1c8.73 0 15.82-7.09 15.82-15.8v-.95h1.88v.94z"/><path d="M67.5 25.13A12.9 12.9 0 0054.64 38c0 6.5 4.81 10.37 12.88 10.37 8.06 0 12.88-3.88 12.88-10.37A12.9 12.9 0 0067.5 25.13zm0 20.1c-3.63 0-9.73-.94-9.73-7.23a9.75 9.75 0 0119.47 0c0 6.29-6.1 7.23-9.73 7.23zM61.23 12.56c-3.21 0-5.34 3.97-5.34 6.6a5.35 5.35 0 0010.68 0c0-2.63-2.13-6.6-5.34-6.6zm0 8.8a2.2 2.2 0 01-2.2-2.2c0-1.49 1.25-3.46 2.2-3.46.94 0 2.2 1.97 2.2 3.46a2.2 2.2 0 01-2.2 2.2zM73.79 12.56c-3.21 0-5.34 3.97-5.34 6.6a5.35 5.35 0 0010.68 0c0-2.63-2.13-6.6-5.34-6.6zm0 8.8a2.2 2.2 0 01-2.2-2.2c0-1.49 1.25-3.46 2.2-3.46.94 0 2.2 1.97 2.2 3.46a2.2 2.2 0 01-2.2 2.2zM83.84 20.1c-3.2 0-5.34 3.97-5.34 6.6a5.35 5.35 0 0010.68 0c0-2.63-2.13-6.6-5.34-6.6zm0 8.8a2.2 2.2 0 01-2.2-2.2c0-1.49 1.26-3.46 2.2-3.46.95 0 2.2 1.97 2.2 3.46a2.2 2.2 0 01-2.2 2.2zM51.18 20.1c-3.21 0-5.34 3.97-5.34 6.6a5.35 5.35 0 0010.67 0c0-2.63-2.13-6.6-5.33-6.6zm0 8.8a2.2 2.2 0 01-2.2-2.2c0-1.49 1.25-3.46 2.2-3.46.94 0 2.2 1.97 2.2 3.46a2.2 2.2 0 01-2.2 2.2z"/></mask><path d="M13.9 23.45C6.57 23.45.6 29.42.6 36.75c0 6.8 5.14 12.42 11.73 13.2V60.2a1.57 1.57 0 003.14 0V49.95c6.6-.78 11.73-6.4 11.73-13.2 0-7.33-5.97-13.3-13.3-13.3zm0 23.45a10.17 10.17 0 010-20.3 10.17 10.17 0 010 20.3z" fill="#fff"/><path d="M13.9 30.15a6.6 6.6 0 10.02 13.21 6.6 6.6 0 00-.02-13.2zm0 10.05a3.46 3.46 0 11.01-6.91 3.46 3.46 0 010 6.91zM96.82 37.7h-.94V10.77a8.28 8.28 0 00-8.27-8.27h-3.46v-.94c0-.87-.7-1.57-1.57-1.57H78.4a4.09 4.09 0 000 8.17h4.18c.87 0 1.57-.7 1.57-1.57v-.95h3.46c2.83 0 5.13 2.3 5.13 5.13V37.7h-.94c-.87 0-1.57.7-1.57 1.57v2.51c0 6.99-5.69 12.67-12.67 12.67h-20.1a12.68 12.68 0 01-12.67-12.67v-2.5c0-.88-.7-1.58-1.57-1.58h-.94V10.8c0-2.83 2.3-5.14 5.13-5.14h3.45v.95c0 .86.7 1.57 1.57 1.57h4.19a4.09 4.09 0 000-8.17h-4.19c-.87 0-1.57.7-1.57 1.57v.94h-3.45a8.28 8.28 0 00-8.27 8.27V37.7h-.95c-.86 0-1.57.7-1.57 1.57v2.51a20.86 20.86 0 0020.84 20.84h5.96v7.64c0 .87.7 1.57 1.58 1.57h.94v8.48a23.58 23.58 0 01-23.56 23.56h-3.35A23.58 23.58 0 0115.47 80.3V67.8a1.57 1.57 0 00-3.14 0v12.5a26.73 26.73 0 0026.7 26.7h3.35a26.73 26.73 0 0026.7-26.7v-8.48h.94c.87 0 1.57-.7 1.57-1.57v-7.64h5.97a20.86 20.86 0 0020.83-20.84v-2.5c0-.88-.7-1.58-1.57-1.58zM81.02 5.02H78.4a.94.94 0 010-1.89H81v1.89zM54 3.14h2.62a.94.94 0 010 1.89H54V3.14zm41.25 38.63c0 9.76-7.93 17.7-17.7 17.7h-7.53c-.87 0-1.57.7-1.57 1.57v7.64h-1.88v-7.64c0-.87-.7-1.57-1.57-1.57h-7.54c-9.76 0-17.7-7.94-17.7-17.7v-.94h1.89v.94c0 8.72 7.09 15.81 15.8 15.81h20.1c8.73 0 15.82-7.09 15.82-15.8v-.95h1.88v.94z" fill="#fff"/><path d="M67.5 25.13A12.9 12.9 0 0054.64 38c0 6.5 4.81 10.37 12.88 10.37 8.06 0 12.88-3.88 12.88-10.37A12.9 12.9 0 0067.5 25.13zm0 20.1c-3.63 0-9.73-.94-9.73-7.23a9.75 9.75 0 0119.47 0c0 6.29-6.1 7.23-9.73 7.23zM61.23 12.56c-3.21 0-5.34 3.97-5.34 6.6a5.35 5.35 0 0010.68 0c0-2.63-2.13-6.6-5.34-6.6zm0 8.8a2.2 2.2 0 01-2.2-2.2c0-1.49 1.25-3.46 2.2-3.46.94 0 2.2 1.97 2.2 3.46a2.2 2.2 0 01-2.2 2.2zM73.79 12.56c-3.21 0-5.34 3.97-5.34 6.6a5.35 5.35 0 0010.68 0c0-2.63-2.13-6.6-5.34-6.6zm0 8.8a2.2 2.2 0 01-2.2-2.2c0-1.49 1.25-3.46 2.2-3.46.94 0 2.2 1.97 2.2 3.46a2.2 2.2 0 01-2.2 2.2zM83.84 20.1c-3.2 0-5.34 3.97-5.34 6.6a5.35 5.35 0 0010.68 0c0-2.63-2.13-6.6-5.34-6.6zm0 8.8a2.2 2.2 0 01-2.2-2.2c0-1.49 1.26-3.46 2.2-3.46.95 0 2.2 1.97 2.2 3.46a2.2 2.2 0 01-2.2 2.2zM51.18 20.1c-3.21 0-5.34 3.97-5.34 6.6a5.35 5.35 0 0010.67 0c0-2.63-2.13-6.6-5.33-6.6zm0 8.8a2.2 2.2 0 01-2.2-2.2c0-1.49 1.25-3.46 2.2-3.46.94 0 2.2 1.97 2.2 3.46a2.2 2.2 0 01-2.2 2.2z" fill="#fff"/><path d="M13.9 23.45C6.57 23.45.6 29.42.6 36.75c0 6.8 5.14 12.42 11.73 13.2V60.2a1.57 1.57 0 003.14 0V49.95c6.6-.78 11.73-6.4 11.73-13.2 0-7.33-5.97-13.3-13.3-13.3zm0 23.45a10.17 10.17 0 010-20.3 10.17 10.17 0 010 20.3z" stroke="#A07B50" stroke-width="2" mask="url(#a)"/><path d="M13.9 30.15a6.6 6.6 0 10.02 13.21 6.6 6.6 0 00-.02-13.2zm0 10.05a3.46 3.46 0 11.01-6.91 3.46 3.46 0 010 6.91zM96.82 37.7h-.94V10.77a8.28 8.28 0 00-8.27-8.27h-3.46v-.94c0-.87-.7-1.57-1.57-1.57H78.4a4.09 4.09 0 000 8.17h4.18c.87 0 1.57-.7 1.57-1.57v-.95h3.46c2.83 0 5.13 2.3 5.13 5.13V37.7h-.94c-.87 0-1.57.7-1.57 1.57v2.51c0 6.99-5.69 12.67-12.67 12.67h-20.1a12.68 12.68 0 01-12.67-12.67v-2.5c0-.88-.7-1.58-1.57-1.58h-.94V10.8c0-2.83 2.3-5.14 5.13-5.14h3.45v.95c0 .86.7 1.57 1.57 1.57h4.19a4.09 4.09 0 000-8.17h-4.19c-.87 0-1.57.7-1.57 1.57v.94h-3.45a8.28 8.28 0 00-8.27 8.27V37.7h-.95c-.86 0-1.57.7-1.57 1.57v2.51a20.86 20.86 0 0020.84 20.84h5.96v7.64c0 .87.7 1.57 1.58 1.57h.94v8.48a23.58 23.58 0 01-23.56 23.56h-3.35A23.58 23.58 0 0115.47 80.3V67.8a1.57 1.57 0 00-3.14 0v12.5a26.73 26.73 0 0026.7 26.7h3.35a26.73 26.73 0 0026.7-26.7v-8.48h.94c.87 0 1.57-.7 1.57-1.57v-7.64h5.97a20.86 20.86 0 0020.83-20.84v-2.5c0-.88-.7-1.58-1.57-1.58zM81.02 5.02H78.4a.94.94 0 010-1.89H81v1.89zM54 3.14h2.62a.94.94 0 010 1.89H54V3.14zm41.25 38.63c0 9.76-7.93 17.7-17.7 17.7h-7.53c-.87 0-1.57.7-1.57 1.57v7.64h-1.88v-7.64c0-.87-.7-1.57-1.57-1.57h-7.54c-9.76 0-17.7-7.94-17.7-17.7v-.94h1.89v.94c0 8.72 7.09 15.81 15.8 15.81h20.1c8.73 0 15.82-7.09 15.82-15.8v-.95h1.88v.94z" stroke="#A07B50" stroke-width="2" mask="url(#a)"/><path d="M67.5 25.13A12.9 12.9 0 0054.64 38c0 6.5 4.81 10.37 12.88 10.37 8.06 0 12.88-3.88 12.88-10.37A12.9 12.9 0 0067.5 25.13zm0 20.1c-3.63 0-9.73-.94-9.73-7.23a9.75 9.75 0 0119.47 0c0 6.29-6.1 7.23-9.73 7.23zM61.23 12.56c-3.21 0-5.34 3.97-5.34 6.6a5.35 5.35 0 0010.68 0c0-2.63-2.13-6.6-5.34-6.6zm0 8.8a2.2 2.2 0 01-2.2-2.2c0-1.49 1.25-3.46 2.2-3.46.94 0 2.2 1.97 2.2 3.46a2.2 2.2 0 01-2.2 2.2zM73.79 12.56c-3.21 0-5.34 3.97-5.34 6.6a5.35 5.35 0 0010.68 0c0-2.63-2.13-6.6-5.34-6.6zm0 8.8a2.2 2.2 0 01-2.2-2.2c0-1.49 1.25-3.46 2.2-3.46.94 0 2.2 1.97 2.2 3.46a2.2 2.2 0 01-2.2 2.2zM83.84 20.1c-3.2 0-5.34 3.97-5.34 6.6a5.35 5.35 0 0010.68 0c0-2.63-2.13-6.6-5.34-6.6zm0 8.8a2.2 2.2 0 01-2.2-2.2c0-1.49 1.26-3.46 2.2-3.46.95 0 2.2 1.97 2.2 3.46a2.2 2.2 0 01-2.2 2.2zM51.18 20.1c-3.21 0-5.34 3.97-5.34 6.6a5.35 5.35 0 0010.67 0c0-2.63-2.13-6.6-5.33-6.6zm0 8.8a2.2 2.2 0 01-2.2-2.2c0-1.49 1.25-3.46 2.2-3.46.94 0 2.2 1.97 2.2 3.46a2.2 2.2 0 01-2.2 2.2z" stroke="#A07B50" stroke-width="2" mask="url(#a)"/></svg>