<svg width="107" height="97" fill="none" xmlns="http://www.w3.org/2000/svg"><mask id="a" fill="#fff"><path d="M43.35 42.75A12.86 12.86 0 0030.5 55.6c0 6.48 4.8 10.34 12.85 10.34S56.2 62.08 56.2 55.6c0-7.08-5.77-12.85-12.85-12.85zm0 20.06c-3.63 0-9.71-.94-9.71-7.2a9.73 9.73 0 0119.42 0c0 6.26-6.08 7.2-9.71 7.2zM37.08 30.22c-3.2 0-5.32 3.96-5.32 6.58a5.33 5.33 0 0010.65 0c0-2.62-2.12-6.58-5.33-6.58zm0 8.77a2.2 2.2 0 01-2.2-2.19c0-1.48 1.26-3.45 2.2-3.45.95 0 2.2 1.97 2.2 3.45a2.2 2.2 0 01-2.2 2.2zM49.62 30.22c-3.2 0-5.33 3.96-5.33 6.58a5.33 5.33 0 0010.65 0c0-2.62-2.12-6.58-5.32-6.58zm0 8.77a2.2 2.2 0 01-2.2-2.19c0-1.48 1.25-3.45 2.2-3.45.94 0 2.2 1.97 2.2 3.45a2.2 2.2 0 01-2.2 2.2zM59.65 37.74c-3.2 0-5.33 3.96-5.33 6.58a5.33 5.33 0 0010.65 0c0-2.62-2.12-6.58-5.32-6.58zm0 8.78a2.2 2.2 0 01-2.2-2.2c0-1.48 1.25-3.45 2.2-3.45.94 0 2.19 1.97 2.19 3.45a2.2 2.2 0 01-2.2 2.2zM27.05 37.74c-3.2 0-5.32 3.96-5.32 6.58a5.33 5.33 0 0010.65 0c0-2.62-2.12-6.58-5.33-6.58zm0 8.78a2.2 2.2 0 01-2.19-2.2c0-1.48 1.25-3.45 2.2-3.45.94 0 2.19 1.97 2.19 3.45a2.2 2.2 0 01-2.2 2.2z"/><path d="M46.7 52.78h-1.78v-1.77a1.57 1.57 0 10-3.14 0v1.77h-1.77a1.57 1.57 0 100 3.14h1.77v1.77a1.57 1.57 0 103.14 0v-1.77h1.77a1.57 1.57 0 100-3.14z"/><path d="M62.2 3.27A47.62 47.62 0 0047.53.97 47.22 47.22 0 0013.92 14.9 47.22 47.22 0 000 48.5c0 12.7 4.94 24.63 13.92 33.6a47.22 47.22 0 0033.6 13.93 1.57 1.57 0 100-3.14 44.1 44.1 0 01-31.38-13 44.1 44.1 0 01-13-31.39c0-11.86 4.61-23 13-31.4a44.1 44.1 0 0131.39-13c4.69 0 9.3.73 13.7 2.15.82.26 1.71-.2 1.98-1 .26-.82-.2-1.72-1.01-1.98z"/><path d="M106.61 43.93l-5.5-6.3a1.58 1.58 0 00-2.21-.14l-4.38 3.84A47.53 47.53 0 0069.6 6.38c-.76-.4-1.72-.1-2.12.66-.4.76-.1 1.72.66 2.12a44.55 44.55 0 0110.78 7.95A43.76 43.76 0 0191.75 44.6a1.58 1.58 0 002.6 1.04l5.43-4.76 3.44 3.93-12.19 10.67c-.97.85-2.47.85-3.44 0L75.4 44.8l3.44-3.93 5 4.38c1.06.92 2.75.03 2.59-1.37a39.16 39.16 0 10-38.9 43.78 1.57 1.57 0 100-3.13A36.08 36.08 0 0111.49 48.5a36.04 36.04 0 0171.05-8.54l-2.82-2.47a1.58 1.58 0 00-2.2.15L72 43.93c-.57.65-.5 1.64.15 2.2l13.37 11.7a5.8 5.8 0 007.56 0l13.38-11.7c.65-.56.71-1.55.14-2.2z"/><path d="M73.43 90.39H61.8C66.98 86.53 75 79.36 75 71.89a9.93 9.93 0 00-19.85 0 1.57 1.57 0 103.14 0 6.8 6.8 0 0113.58 0c0 9.03-15.8 18.62-15.96 18.72-.61.37-.9 1.13-.68 1.82.2.64.82 1.1 1.49 1.1h16.71a1.57 1.57 0 000-3.14zM98.5 83.7h-3.44V63.54c0-.64-.41-1.23-1.01-1.46a1.58 1.58 0 00-1.8.5L75.53 84.32a1.58 1.58 0 001.25 2.53h15.14v5.11a1.57 1.57 0 103.14 0v-5.11h3.44a1.57 1.57 0 100-3.14zm-6.58 0H79.96l11.96-15.55V83.7z"/></mask><path d="M43.35 42.75A12.86 12.86 0 0030.5 55.6c0 6.48 4.8 10.34 12.85 10.34S56.2 62.08 56.2 55.6c0-7.08-5.77-12.85-12.85-12.85zm0 20.06c-3.63 0-9.71-.94-9.71-7.2a9.73 9.73 0 0119.42 0c0 6.26-6.08 7.2-9.71 7.2zM37.08 30.22c-3.2 0-5.32 3.96-5.32 6.58a5.33 5.33 0 0010.65 0c0-2.62-2.12-6.58-5.33-6.58zm0 8.77a2.2 2.2 0 01-2.2-2.19c0-1.48 1.26-3.45 2.2-3.45.95 0 2.2 1.97 2.2 3.45a2.2 2.2 0 01-2.2 2.2zM49.62 30.22c-3.2 0-5.33 3.96-5.33 6.58a5.33 5.33 0 0010.65 0c0-2.62-2.12-6.58-5.32-6.58zm0 8.77a2.2 2.2 0 01-2.2-2.19c0-1.48 1.25-3.45 2.2-3.45.94 0 2.2 1.97 2.2 3.45a2.2 2.2 0 01-2.2 2.2zM59.65 37.74c-3.2 0-5.33 3.96-5.33 6.58a5.33 5.33 0 0010.65 0c0-2.62-2.12-6.58-5.32-6.58zm0 8.78a2.2 2.2 0 01-2.2-2.2c0-1.48 1.25-3.45 2.2-3.45.94 0 2.19 1.97 2.19 3.45a2.2 2.2 0 01-2.2 2.2zM27.05 37.74c-3.2 0-5.32 3.96-5.32 6.58a5.33 5.33 0 0010.65 0c0-2.62-2.12-6.58-5.33-6.58zm0 8.78a2.2 2.2 0 01-2.19-2.2c0-1.48 1.25-3.45 2.2-3.45.94 0 2.19 1.97 2.19 3.45a2.2 2.2 0 01-2.2 2.2z" fill="#A07B50"/><path d="M46.7 52.78h-1.78v-1.77a1.57 1.57 0 10-3.14 0v1.77h-1.77a1.57 1.57 0 100 3.14h1.77v1.77a1.57 1.57 0 103.14 0v-1.77h1.77a1.57 1.57 0 100-3.14z" fill="#A07B50"/><path d="M62.2 3.27A47.62 47.62 0 0047.53.97 47.22 47.22 0 0013.92 14.9 47.22 47.22 0 000 48.5c0 12.7 4.94 24.63 13.92 33.6a47.22 47.22 0 0033.6 13.93 1.57 1.57 0 100-3.14 44.1 44.1 0 01-31.38-13 44.1 44.1 0 01-13-31.39c0-11.86 4.61-23 13-31.4a44.1 44.1 0 0131.39-13c4.69 0 9.3.73 13.7 2.15.82.26 1.71-.2 1.98-1 .26-.82-.2-1.72-1.01-1.98z" fill="#A07B50"/><path d="M106.61 43.93l-5.5-6.3a1.58 1.58 0 00-2.21-.14l-4.38 3.84A47.53 47.53 0 0069.6 6.38c-.76-.4-1.72-.1-2.12.66-.4.76-.1 1.72.66 2.12a44.55 44.55 0 0110.78 7.95A43.76 43.76 0 0191.75 44.6a1.58 1.58 0 002.6 1.04l5.43-4.76 3.44 3.93-12.19 10.67c-.97.85-2.47.85-3.44 0L75.4 44.8l3.44-3.93 5 4.38c1.06.92 2.75.03 2.59-1.37a39.16 39.16 0 10-38.9 43.78 1.57 1.57 0 100-3.13A36.08 36.08 0 0111.49 48.5a36.04 36.04 0 0171.05-8.54l-2.82-2.47a1.58 1.58 0 00-2.2.15L72 43.93c-.57.65-.5 1.64.15 2.2l13.37 11.7a5.8 5.8 0 007.56 0l13.38-11.7c.65-.56.71-1.55.14-2.2z" fill="#A07B50"/><path d="M73.43 90.39H61.8C66.98 86.53 75 79.36 75 71.89a9.93 9.93 0 00-19.85 0 1.57 1.57 0 103.14 0 6.8 6.8 0 0113.58 0c0 9.03-15.8 18.62-15.96 18.72-.61.37-.9 1.13-.68 1.82.2.64.82 1.1 1.49 1.1h16.71a1.57 1.57 0 000-3.14zM98.5 83.7h-3.44V63.54c0-.64-.41-1.23-1.01-1.46a1.58 1.58 0 00-1.8.5L75.53 84.32a1.58 1.58 0 001.25 2.53h15.14v5.11a1.57 1.57 0 103.14 0v-5.11h3.44a1.57 1.57 0 100-3.14zm-6.58 0H79.96l11.96-15.55V83.7z" fill="#A07B50"/><path d="M43.35 42.75A12.86 12.86 0 0030.5 55.6c0 6.48 4.8 10.34 12.85 10.34S56.2 62.08 56.2 55.6c0-7.08-5.77-12.85-12.85-12.85zm0 20.06c-3.63 0-9.71-.94-9.71-7.2a9.73 9.73 0 0119.42 0c0 6.26-6.08 7.2-9.71 7.2zM37.08 30.22c-3.2 0-5.32 3.96-5.32 6.58a5.33 5.33 0 0010.65 0c0-2.62-2.12-6.58-5.33-6.58zm0 8.77a2.2 2.2 0 01-2.2-2.19c0-1.48 1.26-3.45 2.2-3.45.95 0 2.2 1.97 2.2 3.45a2.2 2.2 0 01-2.2 2.2zM49.62 30.22c-3.2 0-5.33 3.96-5.33 6.58a5.33 5.33 0 0010.65 0c0-2.62-2.12-6.58-5.32-6.58zm0 8.77a2.2 2.2 0 01-2.2-2.19c0-1.48 1.25-3.45 2.2-3.45.94 0 2.2 1.97 2.2 3.45a2.2 2.2 0 01-2.2 2.2zM59.65 37.74c-3.2 0-5.33 3.96-5.33 6.58a5.33 5.33 0 0010.65 0c0-2.62-2.12-6.58-5.32-6.58zm0 8.78a2.2 2.2 0 01-2.2-2.2c0-1.48 1.25-3.45 2.2-3.45.94 0 2.19 1.97 2.19 3.45a2.2 2.2 0 01-2.2 2.2zM27.05 37.74c-3.2 0-5.32 3.96-5.32 6.58a5.33 5.33 0 0010.65 0c0-2.62-2.12-6.58-5.33-6.58zm0 8.78a2.2 2.2 0 01-2.19-2.2c0-1.48 1.25-3.45 2.2-3.45.94 0 2.19 1.97 2.19 3.45a2.2 2.2 0 01-2.2 2.2z" stroke="#1F1C1D" stroke-width="2" mask="url(#a)"/><path d="M46.7 52.78h-1.78v-1.77a1.57 1.57 0 10-3.14 0v1.77h-1.77a1.57 1.57 0 100 3.14h1.77v1.77a1.57 1.57 0 103.14 0v-1.77h1.77a1.57 1.57 0 100-3.14z" stroke="#1F1C1D" stroke-width="2" mask="url(#a)"/><path d="M62.2 3.27A47.62 47.62 0 0047.53.97 47.22 47.22 0 0013.92 14.9 47.22 47.22 0 000 48.5c0 12.7 4.94 24.63 13.92 33.6a47.22 47.22 0 0033.6 13.93 1.57 1.57 0 100-3.14 44.1 44.1 0 01-31.38-13 44.1 44.1 0 01-13-31.39c0-11.86 4.61-23 13-31.4a44.1 44.1 0 0131.39-13c4.69 0 9.3.73 13.7 2.15.82.26 1.71-.2 1.98-1 .26-.82-.2-1.72-1.01-1.98z" stroke="#1F1C1D" stroke-width="2" mask="url(#a)"/><path d="M106.61 43.93l-5.5-6.3a1.58 1.58 0 00-2.21-.14l-4.38 3.84A47.53 47.53 0 0069.6 6.38c-.76-.4-1.72-.1-2.12.66-.4.76-.1 1.72.66 2.12a44.55 44.55 0 0110.78 7.95A43.76 43.76 0 0191.75 44.6a1.58 1.58 0 002.6 1.04l5.43-4.76 3.44 3.93-12.19 10.67c-.97.85-2.47.85-3.44 0L75.4 44.8l3.44-3.93 5 4.38c1.06.92 2.75.03 2.59-1.37a39.16 39.16 0 10-38.9 43.78 1.57 1.57 0 100-3.13A36.08 36.08 0 0111.49 48.5a36.04 36.04 0 0171.05-8.54l-2.82-2.47a1.58 1.58 0 00-2.2.15L72 43.93c-.57.65-.5 1.64.15 2.2l13.37 11.7a5.8 5.8 0 007.56 0l13.38-11.7c.65-.56.71-1.55.14-2.2z" stroke="#1F1C1D" stroke-width="2" mask="url(#a)"/><path d="M73.43 90.39H61.8C66.98 86.53 75 79.36 75 71.89a9.93 9.93 0 00-19.85 0 1.57 1.57 0 103.14 0 6.8 6.8 0 0113.58 0c0 9.03-15.8 18.62-15.96 18.72-.61.37-.9 1.13-.68 1.82.2.64.82 1.1 1.49 1.1h16.71a1.57 1.57 0 000-3.14zM98.5 83.7h-3.44V63.54c0-.64-.41-1.23-1.01-1.46a1.58 1.58 0 00-1.8.5L75.53 84.32a1.58 1.58 0 001.25 2.53h15.14v5.11a1.57 1.57 0 103.14 0v-5.11h3.44a1.57 1.57 0 100-3.14zm-6.58 0H79.96l11.96-15.55V83.7z" stroke="#1F1C1D" stroke-width="2" mask="url(#a)"/></svg>